<svg width="50" height="50" viewBox="0 0 50 50" fill="none" xmlns="http://www.w3.org/2000/svg">
<rect width="50" height="50" fill="#98EB00"/>
<path d="M21.0294 45.7612C12.0321 45.7612 7.41346 42.4968 7.17357 35.9678C7.13655 34.9605 7.2088 33.8786 7.3903 32.722L7.96614 28.5808H18.0461L17.778 30.4276C17.6629 31.3603 17.6232 32.3116 17.6589 33.2816C17.6945 34.2517 17.9666 35.0538 18.4753 35.688C19.2562 36.6207 20.5054 37.0871 22.2227 37.0871C23.94 37.0871 25.3042 36.6207 26.3153 35.688C27.3637 34.7553 28.066 33.0391 28.4221 30.5395L32.0621 4.62897H42.0861L38.3629 31.323C37.6866 36.2849 35.9542 39.9411 33.1659 42.2916C30.3762 44.6047 26.3307 45.7612 21.0294 45.7612Z" fill="black"/>
</svg>
